<?xml version="1.0" encoding="UTF-8" standalone="no"?>
<svg
   xmlns:dc="http://purl.org/dc/elements/1.1/"
   xmlns:cc="http://creativecommons.org/ns#"
   xmlns:rdf="http://www.w3.org/1999/02/22-rdf-syntax-ns#"
   xmlns:svg="http://www.w3.org/2000/svg"
   xmlns="http://www.w3.org/2000/svg"
   xmlns:sodipodi="http://sodipodi.sourceforge.net/DTD/sodipodi-0.dtd"
   xmlns:inkscape="http://www.inkscape.org/namespaces/inkscape"
   inkscape:version="1.0 (4035a4fb49, 2020-05-01)"
   height="100"
   width="100"
   sodipodi:docname="noun_Technology_2034212.svg"
   id="svg12"
   xml:space="preserve"
   viewBox="0 0 100 100"
   y="0px"
   x="0px"
   version="1.1"><metadata
     id="metadata18"><rdf:RDF><cc:Work
         rdf:about=""><dc:format>image/svg+xml</dc:format><dc:type
           rdf:resource="http://purl.org/dc/dcmitype/StillImage" /><dc:title></dc:title></cc:Work></rdf:RDF></metadata><defs
     id="defs16" /><sodipodi:namedview
     inkscape:current-layer="svg12"
     inkscape:window-maximized="0"
     inkscape:window-y="23"
     inkscape:window-x="26"
     inkscape:cy="62.5"
     inkscape:cx="50"
     inkscape:zoom="6.024"
     showgrid="false"
     id="namedview14"
     inkscape:window-height="892"
     inkscape:window-width="1266"
     inkscape:pageshadow="2"
     inkscape:pageopacity="0"
     guidetolerance="10"
     gridtolerance="10"
     objecttolerance="10"
     borderopacity="1"
     bordercolor="#666666"
     pagecolor="#ffffff" /><g
     transform="matrix(1.1908868,0,0,1.1908868,-9.3621283,-9.3621283)"
     id="g23"><path
       d="m 71.75,43.009 h 7.79 c 0.469,2.434 2.61,4.28 5.179,4.28 2.912,0 5.281,-2.369 5.281,-5.28 0,-2.911 -2.369,-5.28 -5.281,-5.28 -2.569,0 -4.71,1.846 -5.179,4.28 H 71.75 V 29.25 c 0,-0.553 -0.448,-1 -1,-1 h -2.625 v -3.563 c 0,-0.553 -0.448,-1 -1,-1 -0.552,0 -1,0.447 -1,1 v 3.563 h -7.134 v -7.79 c 2.434,-0.469 4.28,-2.611 4.28,-5.18 0,-2.911 -2.369,-5.28 -5.28,-5.28 -2.911,0 -5.281,2.369 -5.281,5.28 0,2.57 1.846,4.711 4.281,5.18 v 7.79 H 51 v -3.563 c 0,-0.553 -0.448,-1 -1,-1 -0.552,0 -1,0.447 -1,1 v 3.563 h -5.991 v -7.79 c 2.434,-0.469 4.281,-2.611 4.281,-5.18 0,-2.911 -2.369,-5.28 -5.281,-5.28 -2.912,0 -5.28,2.369 -5.28,5.28 0,2.57 1.846,4.711 4.28,5.18 v 7.79 h -7.134 v -3.563 c 0,-0.553 -0.448,-1 -1,-1 -0.552,0 -1,0.447 -1,1 V 28.25 H 29.25 c -0.552,0 -1,0.447 -1,1 v 11.759 h -7.79 c -0.469,-2.434 -2.61,-4.28 -5.179,-4.28 -2.912,0 -5.281,2.369 -5.281,5.28 0,2.911 2.369,5.28 5.281,5.28 2.569,0 4.71,-1.846 5.179,-4.28 h 7.79 v 13.982 h -7.79 c -0.469,-2.434 -2.61,-4.28 -5.179,-4.28 -2.912,0 -5.281,2.369 -5.281,5.28 0,2.911 2.369,5.28 5.281,5.28 2.569,0 4.71,-1.846 5.179,-4.28 h 7.79 V 70.75 c 0,0.553 0.448,1 1,1 h 2.625 v 3.563 c 0,0.553 0.448,1 1,1 0.552,0 1,-0.447 1,-1 V 71.75 h 7.134 v 7.79 c -2.434,0.469 -4.28,2.611 -4.28,5.18 0,2.911 2.369,5.28 5.28,5.28 2.911,0 5.281,-2.369 5.281,-5.28 0,-2.57 -1.846,-4.711 -4.281,-5.18 V 71.75 H 49 v 3.563 c 0,0.553 0.448,1 1,1 0.552,0 1,-0.447 1,-1 V 71.75 h 5.991 v 7.79 c -2.434,0.469 -4.281,2.611 -4.281,5.18 0,2.911 2.369,5.28 5.281,5.28 2.912,0 5.28,-2.369 5.28,-5.28 0,-2.57 -1.846,-4.711 -4.28,-5.18 v -7.79 h 7.134 v 3.563 c 0,0.553 0.448,1 1,1 0.552,0 1,-0.447 1,-1 V 71.75 h 2.625 c 0.552,0 1,-0.447 1,-1 V 58.991 h 7.79 c 0.469,2.434 2.61,4.28 5.179,4.28 2.912,0 5.281,-2.369 5.281,-5.28 0,-2.911 -2.369,-5.28 -5.281,-5.28 -2.569,0 -4.71,1.846 -5.179,4.28 h -7.79 z m 12.969,-4.28 c 1.809,0 3.281,1.472 3.281,3.28 0,1.808 -1.472,3.28 -3.281,3.28 -1.809,0 -3.28,-1.472 -3.28,-3.28 0,-1.808 1.472,-3.28 3.28,-3.28 z M 54.71,15.28 c 0,-1.809 1.472,-3.28 3.281,-3.28 1.809,0 3.28,1.472 3.28,3.28 0,1.81 -1.472,3.281 -3.28,3.281 C 56.182,18.562 54.71,17.09 54.71,15.28 Z m -15.981,0 c 0,-1.809 1.472,-3.28 3.28,-3.28 1.809,0 3.281,1.472 3.281,3.28 0,1.81 -1.472,3.281 -3.281,3.281 -1.809,0.001 -3.28,-1.471 -3.28,-3.281 z M 15.281,45.289 c -1.809,0 -3.281,-1.472 -3.281,-3.28 0,-1.808 1.472,-3.28 3.281,-3.28 1.809,0 3.28,1.472 3.28,3.28 0,1.808 -1.472,3.28 -3.28,3.28 z m 0,15.982 c -1.809,0 -3.281,-1.472 -3.281,-3.28 0,-1.808 1.472,-3.28 3.281,-3.28 1.809,0 3.28,1.472 3.28,3.28 0,1.808 -1.472,3.28 -3.28,3.28 z M 45.29,84.72 c 0,1.809 -1.472,3.28 -3.281,3.28 -1.809,0 -3.28,-1.472 -3.28,-3.28 0,-1.81 1.472,-3.281 3.28,-3.281 1.809,-10e-4 3.281,1.471 3.281,3.281 z m 15.981,0 c 0,1.809 -1.472,3.28 -3.28,3.28 -1.809,0 -3.281,-1.472 -3.281,-3.28 0,-1.81 1.472,-3.281 3.281,-3.281 1.809,-10e-4 3.28,1.471 3.28,3.281 z M 84.719,54.711 c 1.809,0 3.281,1.472 3.281,3.28 0,1.808 -1.472,3.28 -3.281,3.28 -1.809,0 -3.28,-1.472 -3.28,-3.28 0,-1.808 1.472,-3.28 3.28,-3.28 z M 69.75,69.75 h -39.5 v -39.5 h 39.5 z"
       id="path2" /><path
       d="m 50.024,42.311 c -4.24,0 -7.689,3.449 -7.689,7.689 0,4.24 3.45,7.689 7.689,7.689 4.239,0 7.69,-3.449 7.69,-7.689 0,-4.24 -3.45,-7.689 -7.69,-7.689 z m 0,13.378 c -3.137,0 -5.689,-2.553 -5.689,-5.689 0,-3.136 2.552,-5.689 5.689,-5.689 3.137,0 5.689,2.553 5.689,5.689 0,3.136 -2.551,5.689 -5.689,5.689 z"
       id="path4" /><path
       d="m 65.254,47.732 c 0.282,-0.029 0.539,-0.178 0.705,-0.407 0.166,-0.229 0.228,-0.52 0.168,-0.797 -0.417,-1.943 -1.179,-3.779 -2.264,-5.458 -0.154,-0.238 -0.402,-0.399 -0.682,-0.444 -0.277,-0.047 -0.565,0.031 -0.786,0.21 -0.909,0.732 -2.217,0.663 -3.043,-0.164 -0.827,-0.826 -0.897,-2.135 -0.163,-3.042 0.178,-0.221 0.254,-0.507 0.209,-0.787 -0.044,-0.279 -0.206,-0.527 -0.444,-0.682 -1.677,-1.084 -3.513,-1.846 -5.458,-2.264 -0.276,-0.058 -0.567,0 -0.797,0.168 -0.229,0.166 -0.378,0.423 -0.408,0.705 -0.122,1.162 -1.097,2.038 -2.267,2.038 -1.17,0 -2.145,-0.876 -2.268,-2.038 -0.03,-0.282 -0.178,-0.539 -0.408,-0.705 -0.23,-0.167 -0.521,-0.225 -0.797,-0.168 -1.945,0.418 -3.782,1.18 -5.458,2.264 -0.238,0.154 -0.4,0.402 -0.444,0.682 -0.045,0.28 0.031,0.566 0.209,0.787 0.734,0.907 0.664,2.215 -0.163,3.042 -0.828,0.826 -2.136,0.897 -3.043,0.163 -0.221,-0.178 -0.505,-0.256 -0.787,-0.209 -0.28,0.045 -0.528,0.206 -0.682,0.444 -1.085,1.679 -1.847,3.516 -2.263,5.458 -0.06,0.277 10e-4,0.567 0.168,0.797 0.167,0.23 0.423,0.378 0.705,0.407 1.162,0.122 2.038,1.097 2.038,2.268 0,1.171 -0.876,2.146 -2.038,2.268 -0.282,0.029 -0.539,0.178 -0.705,0.407 -0.166,0.229 -0.228,0.52 -0.168,0.797 0.417,1.942 1.178,3.779 2.263,5.458 0.154,0.238 0.402,0.399 0.682,0.444 0.282,0.047 0.566,-0.03 0.787,-0.209 0.908,-0.734 2.216,-0.663 3.043,0.163 0.827,0.827 0.897,2.135 0.163,3.042 -0.178,0.221 -0.254,0.507 -0.209,0.787 0.044,0.279 0.206,0.527 0.444,0.682 1.676,1.084 3.512,1.846 5.458,2.264 0.275,0.059 0.566,-10e-4 0.797,-0.168 0.229,-0.166 0.378,-0.423 0.408,-0.705 0.123,-1.162 1.097,-2.038 2.268,-2.038 1.171,0 2.145,0.876 2.267,2.038 0.03,0.282 0.178,0.539 0.408,0.705 0.172,0.125 0.378,0.19 0.587,0.19 0.07,0 0.141,-0.008 0.21,-0.022 1.945,-0.418 3.781,-1.18 5.458,-2.264 0.238,-0.154 0.4,-0.402 0.444,-0.682 0.045,-0.28 -0.031,-0.566 -0.209,-0.787 -0.734,-0.907 -0.664,-2.216 0.163,-3.042 0.826,-0.826 2.134,-0.896 3.043,-0.164 0.221,0.18 0.509,0.257 0.786,0.21 0.28,-0.045 0.528,-0.206 0.682,-0.444 1.085,-1.679 1.847,-3.515 2.264,-5.458 0.06,-0.277 -10e-4,-0.567 -0.168,-0.797 -0.167,-0.23 -0.423,-0.378 -0.705,-0.407 -1.162,-0.122 -2.038,-1.097 -2.038,-2.268 0,-1.171 0.876,-2.146 2.038,-2.268 z m -1.316,6.257 c -0.301,1.053 -0.722,2.066 -1.257,3.027 -1.579,-0.695 -3.467,-0.379 -4.743,0.897 -1.276,1.275 -1.592,3.163 -0.897,4.742 -0.961,0.534 -1.974,0.955 -3.028,1.257 -0.625,-1.609 -2.183,-2.722 -3.989,-2.722 -1.806,0 -3.364,1.112 -3.989,2.722 -1.054,-0.302 -2.067,-0.723 -3.027,-1.257 0.694,-1.579 0.379,-3.466 -0.897,-4.742 -1.276,-1.276 -3.163,-1.593 -4.743,-0.897 -0.535,-0.961 -0.955,-1.975 -1.256,-3.027 1.609,-0.624 2.722,-2.183 2.722,-3.989 0,-1.806 -1.113,-3.365 -2.722,-3.989 0.301,-1.053 0.722,-2.066 1.256,-3.027 1.58,0.695 3.467,0.379 4.743,-0.897 1.276,-1.276 1.591,-3.163 0.897,-4.742 0.96,-0.534 1.973,-0.955 3.027,-1.257 0.625,1.609 2.183,2.722 3.989,2.722 1.806,0 3.364,-1.112 3.989,-2.722 1.054,0.302 2.067,0.723 3.028,1.257 -0.695,1.579 -0.379,3.467 0.897,4.742 1.275,1.276 3.163,1.594 4.743,0.897 0.535,0.961 0.956,1.975 1.257,3.027 -1.609,0.624 -2.722,2.183 -2.722,3.989 0,1.806 1.113,3.365 2.722,3.989 z"
       id="path6" /></g></svg>
