<?xml version="1.0" encoding="UTF-8" standalone="no"?>
<svg
   xmlns:dc="http://purl.org/dc/elements/1.1/"
   xmlns:cc="http://creativecommons.org/ns#"
   xmlns:rdf="http://www.w3.org/1999/02/22-rdf-syntax-ns#"
   xmlns:svg="http://www.w3.org/2000/svg"
   xmlns="http://www.w3.org/2000/svg"
   xmlns:sodipodi="http://sodipodi.sourceforge.net/DTD/sodipodi-0.dtd"
   xmlns:inkscape="http://www.inkscape.org/namespaces/inkscape"
   inkscape:version="1.0 (4035a4fb49, 2020-05-01)"
   height="100"
   width="100"
   sodipodi:docname="noun_Television_15555.svg"
   id="svg18"
   xml:space="preserve"
   enable-background="new 0 0 100 100"
   viewBox="0 0 100 100"
   y="0px"
   x="0px"
   version="1.1"><metadata
     id="metadata24"><rdf:RDF><cc:Work
         rdf:about=""><dc:format>image/svg+xml</dc:format><dc:type
           rdf:resource="http://purl.org/dc/dcmitype/StillImage" /><dc:title></dc:title></cc:Work></rdf:RDF></metadata><defs
     id="defs22" /><sodipodi:namedview
     inkscape:current-layer="svg18"
     inkscape:window-maximized="1"
     inkscape:window-y="-8"
     inkscape:window-x="-8"
     inkscape:cy="62.5"
     inkscape:cx="50"
     inkscape:zoom="5.88"
     showgrid="false"
     id="namedview20"
     inkscape:window-height="1057"
     inkscape:window-width="1920"
     inkscape:pageshadow="2"
     inkscape:pageopacity="0"
     guidetolerance="10"
     gridtolerance="10"
     objecttolerance="10"
     borderopacity="1"
     bordercolor="#666666"
     pagecolor="#ffffff" /><g
     id="g10"><g
       id="g8"><g
         id="g6"><g
           id="g4"><path
             id="path2"
             d="M 9.203,66.688 H 91.73 V 25.949 H 9.203 Z M 5.747,25.247 c 0,-1.553 1.256,-2.81 2.81,-2.81 h 83.82 c 1.552,0 2.81,1.257 2.81,2.81 v 42.846 c 0,1.553 -1.258,2.81 -2.81,2.81 H 59.919 v 4.741 c 0,0.31 -0.05,0.604 -0.141,0.878 h 8.394 c 1.068,0 1.932,0.865 1.932,1.932 0,1.067 -0.863,1.932 -1.932,1.932 H 33.404 c -1.067,0 -1.933,-0.864 -1.933,-1.932 0,-0.533 0.219,-1.019 0.57,-1.369 0.344,-0.345 0.828,-0.562 1.362,-0.562 h 8.394 C 41.705,76.249 41.656,75.955 41.656,75.645 V 70.904 H 8.557 c -1.554,0 -2.81,-1.257 -2.81,-2.81 z"
             fill="#000000" /></g></g></g></g><polygon
     id="polygon12"
     points="60.835,47.37 45.169,56.416 45.169,38.326 "
     fill="#000000" /></svg>
